<svg id="Layer_1" data-name="Layer 1" xmlns="http://www.w3.org/2000/svg" viewBox="0 0 315 128">
    <defs>
        <style>
            .cls-1 {
                fill: #0e69af;
            }

            .cls-2 {
                fill: #0db04b;
            }

            .cls-3 {
                fill: #f27226;
            }

            .cls-4 {
                fill: #fff;
            }

            .cls-5 {
                fill: #0e69af;
            }
        </style>
    </defs>
    <path class="cls-1"
        d="M152.64,88.42A5.34,5.34,0,1,1,158,93.77a5.33,5.33,0,0,1-5.33-5.35m9.38,0A4,4,0,1,0,158,92.73,4.11,4.11,0,0,0,162,88.42m-6.1-3h2.25c1.45,0,2.24.5,2.24,1.78a1.51,1.51,0,0,1-1.59,1.62l1.62,2.65h-1.15l-1.56-2.61h-.68v2.61h-1.13ZM157.05,88h1c.66,0,1.24-.1,1.24-.9s-.65-.83-1.23-.83h-1Z" />
    <path class="cls-2"
        d="M135.43,31.78A18.77,18.77,0,0,0,118,44.26c-.14.37-.62,1.91-.62,1.91l-11,47.6h25.25c8.68,0,16-6.26,18.1-14.69h0l10.92-47.31Z" />
    <path class="cls-3"
        d="M93.39,18a18.54,18.54,0,0,0-17.8,13.54,17.68,17.68,0,0,0-.41,1.78L58,107.55H83.27a18.56,18.56,0,0,0,17.94-14.08h0L118.65,18Z" />
    <path class="cls-1"
        d="M45,31.78A18.82,18.82,0,0,0,27.32,45.06c-.06.17-.11.34-.16.52l-.42,1.66L16,93.77H41.85A18.2,18.2,0,0,0,58.79,81.46l1-4.43L70.25,31.78Z" />
    <path class="cls-4"
        d="M40.29,47.24v0h-.39a7.89,7.89,0,0,0-5.06,1.91A8.44,8.44,0,0,0,32,53.12h0L26.21,78.27h.33a7.92,7.92,0,0,0,5.1-1.93,8.2,8.2,0,0,0,3-4.65l1.27-5.46H47.41a8.13,8.13,0,0,0,5.1-1.94,8.24,8.24,0,0,0,3-4.63l.07-.33H37.49l1.2-5.19,15.65,0a7.91,7.91,0,0,0,5.06-1.9,8.4,8.4,0,0,0,3-4.63l.08-.33Z" />
    <path class="cls-4"
        d="M104.17,48.76a5.25,5.25,0,0,0-3.85-1.5l-22.09,0-7.13,31h0v0h.33a7.92,7.92,0,0,0,5.1-1.93,8.2,8.2,0,0,0,3-4.65l1.28-5.52h15.3a7.21,7.21,0,0,0,5-1.46,9.64,9.64,0,0,0,3.09-5.07l1.34-5.74a7.34,7.34,0,0,0,.16-1.41A5,5,0,0,0,104.17,48.76ZM97.28,59.32H82.39l1.2-5.2,14.9,0Z" />
    <path class="cls-4"
        d="M149.11,48.78a5.16,5.16,0,0,0-3.85-1.5H122l0,.22a7.54,7.54,0,0,0-.17,1.36,5.12,5.12,0,0,0,1.44,3.79,5.18,5.18,0,0,0,3.85,1.5h4.88l-5.56,24.12h.33a7.93,7.93,0,0,0,5.11-1.93,8.25,8.25,0,0,0,3-4.65l4.07-17.54h11.5l0-.22a6.62,6.62,0,0,0,.16-1.41A5,5,0,0,0,149.11,48.78Z" />
    <path class="cls-5"
        d="M187,76.61a8.73,8.73,0,0,1-5.91,1.91,12.56,12.56,0,0,1-5.93-1.25L176.44,74A9.3,9.3,0,0,0,181,75.19a4.94,4.94,0,0,0,3.2-1,3.13,3.13,0,0,0,1.22-2.61q0-2.24-3.82-3.92a15.43,15.43,0,0,1-4.13-2.51,5.94,5.94,0,0,1-2-4.55,6.24,6.24,0,0,1,2.08-4.92A8,8,0,0,1,183,53.9a10.21,10.21,0,0,1,5.37,1.26l-1.18,3a8.27,8.27,0,0,0-4.06-1.09,4.34,4.34,0,0,0-2.87.9,3,3,0,0,0-1.09,2.44q0,2.18,4,4a15.41,15.41,0,0,1,4,2.44,6,6,0,0,1,2,4.56A6.53,6.53,0,0,1,187,76.61Z" />
    <path class="cls-5"
        d="M204.69,75.85a7.66,7.66,0,0,1-11.62,0,10.23,10.23,0,0,1-2-6.6,10.23,10.23,0,0,1,2-6.6,7.71,7.71,0,0,1,11.62,0,10.23,10.23,0,0,1,2,6.6A10.23,10.23,0,0,1,204.69,75.85ZM202,64.6a3.71,3.71,0,0,0-6.26,0,8.57,8.57,0,0,0-1.06,4.61,8.59,8.59,0,0,0,1.06,4.62,3.67,3.67,0,0,0,6.26,0,8.59,8.59,0,0,0,1.06-4.62A8.57,8.57,0,0,0,202,64.6Z" />
    <path class="cls-5"
        d="M217.49,55.09q-3.53,0-3.53,3.07v2.21h3.7v2.71H214V78.16h-3.53V63.08h-2.34V60.37h2.34V58.16a5.64,5.64,0,0,1,1.85-4.52,6.76,6.76,0,0,1,4.58-1.45,10.15,10.15,0,0,1,1.13.06v2.84Z" />
    <path class="cls-5"
        d="M228.08,78a5.28,5.28,0,0,1-2.24.4q-4.89,0-4.89-5.22V63.08h-2.4V60.37H221V56.25l3.54-1.09v5.21h3.59v2.71h-3.59V73c0,1.49.79,2.24,2.37,2.24a3.09,3.09,0,0,0,1.22-.23Z" />
    <path class="cls-5"
        d="M249.27,78.16h-3.73l-3.17-11.29a20.07,20.07,0,0,1-.53-2.57h-.06a23.93,23.93,0,0,1-.57,2.57l-3.16,11.29h-3.73L229,60.37h3.6l3.06,11.75a18.79,18.79,0,0,1,.5,2.8h.07c.17-1,.37-2,.59-2.8l3.23-11.75h3.4l3.24,11.75c.22.83.41,1.77.59,2.8h.07a17.63,17.63,0,0,1,.49-2.8L251,60.37h3.6Z" />
    <path class="cls-5"
        d="M269.72,77.27a13.72,13.72,0,0,1-6.4,1.25q-7.68,0-7.69-5.58a4.94,4.94,0,0,1,3.31-4.81,21.94,21.94,0,0,1,7.35-1.32V65.68q0-3-3.76-3a11.26,11.26,0,0,0-4.91,1.09l-.93-2.48a15.26,15.26,0,0,1,6.2-1.25q6.84,0,6.83,6Zm-3.43-8.06a19.64,19.64,0,0,0-5,.73A3,3,0,0,0,259,72.88q0,3,4.19,3a7.62,7.62,0,0,0,3.07-.46Z" />
    <path class="cls-5"
        d="M281.08,63.14a7.71,7.71,0,0,0-1.82-.19,7.18,7.18,0,0,0-2.8.46V78.16h-3.6V61.26a17.74,17.74,0,0,1,6.9-1.25,11.32,11.32,0,0,1,2,.13Z" />
    <path class="cls-5"
        d="M298.23,69.18l-11.81,1.65q.56,4.82,5.45,4.82a10.15,10.15,0,0,0,4.91-1.09l1.06,2.71a13.53,13.53,0,0,1-6.21,1.25A8.35,8.35,0,0,1,285.17,76a9.52,9.52,0,0,1-2.28-6.76A10,10,0,0,1,285,62.58,7.29,7.29,0,0,1,290.91,60a7,7,0,0,1,5.41,2.11,8.09,8.09,0,0,1,1.95,5.71C298.27,68.42,298.26,68.87,298.23,69.18Zm-3.43-1.91q0-4.62-4-4.62a4,4,0,0,0-3.33,1.52,6.62,6.62,0,0,0-1.32,4.29Z" />
</svg>
